<?xml version="1.0" encoding="UTF-8"?>
<!-- Generator: Adobe Illustrator 22.0.1, SVG Export Plug-In . SVG Version: 6.00 Build 0)  -->
<svg version="1.1" id="Lager_1" xmlns="http://www.w3.org/2000/svg" xmlns:xlink="http://www.w3.org/1999/xlink" x="0px" y="0px" viewBox="0 0 243.56 191.94" style="enable-background:new 0 0 243.56 191.94;" xml:space="preserve">
<style type="text/css">
	.st0{fill:#fff;}
</style>
<g>
	<g>
		<path class="st0" d="M14.48,113.68V69.42H1.6V38.63h12.88V11.06h38.23v27.57h25.35v30.79H52.71v36.82    c0,7.65,3.42,10.87,10.46,10.87c5.03,0,9.86-1.41,14.49-3.62v29.98c-6.84,3.82-15.9,6.24-26.56,6.24    C28.16,149.7,14.48,139.64,14.48,113.68z"/>
		<path class="st0" d="M82.49,0.6h38.23v52.92c7.04-9.05,17.1-17.3,32.6-17.3c23.14,0,37.02,15.29,37.02,40.04v71.23h-38.23V88.53    c0-11.87-6.24-18.31-15.29-18.31c-9.26,0-16.1,6.44-16.1,18.31v58.96H82.49V0.6z"/>
	</g>
	<circle class="st0" cx="218.32" cy="123.49" r="24"/>
</g>
<g>
	<path class="st0" d="M5.5,164.58H3.7v5.01H1.42v1.68H3.7v10.11c0,2.79,1.7,4.45,4.54,4.45c0.97,0,1.75-0.17,2.61-0.57l0.09-0.04   v-1.74l-0.21,0.09c-0.87,0.39-1.5,0.54-2.24,0.54c-1.98,0-2.98-0.97-2.98-2.89v-9.96H11v-1.68H5.5V164.58z"/>
	<path class="st0" d="M21.21,169.22c-4.25,0-7.59,3.66-7.59,8.32v0.06c0,4.75,3.37,8.33,7.83,8.33c2.67,0,4.64-0.9,6.59-3l0.1-0.11   l-1.27-1.12l-0.1,0.11c-1.54,1.65-3.21,2.41-5.27,2.41c-3.23,0-5.67-2.41-5.98-5.88h12.97l0.02-0.13c0.03-0.25,0.03-0.36,0.03-0.63   C28.56,172.66,25.54,169.22,21.21,169.22z M26.61,176.69H15.54c0.33-3.36,2.67-5.78,5.61-5.78   C24.82,170.91,26.38,173.98,26.61,176.69z"/>
	<polygon class="st0" points="46.38,169.59 43.96,169.59 34.46,179.42 34.46,162.83 32.65,162.83 32.65,185.56 34.46,185.56   34.46,181.66 38.11,177.99 44.21,185.51 44.26,185.56 46.55,185.56 39.37,176.7  "/>
	<path class="st0" d="M57.18,169.22c-2.39,0-4.24,0.98-5.5,2.9v-2.54h-1.81v15.97h1.81v-9.22c0-3.1,2.27-5.44,5.29-5.44   c3.02,0,4.83,1.94,4.83,5.2v9.46h1.81v-9.74C63.6,171.81,61.08,169.22,57.18,169.22z"/>
	<rect x="68.74" y="163.44" class="st0" width="2.17" height="2.36"/>
	<rect x="68.93" y="169.59" class="st0" width="1.81" height="15.97"/>
	<polygon class="st0" points="90.09,169.59 87.67,169.59 78.17,179.42 78.17,162.83 76.36,162.83 76.36,185.56 78.17,185.56   78.17,181.66 81.82,177.99 87.92,185.51 87.97,185.56 90.26,185.56 83.08,176.7  "/>
	<path class="st0" d="M100.89,169.22c-2.39,0-4.24,0.98-5.5,2.9v-9.3h-1.81v22.73h1.81v-9.22c0-3.1,2.27-5.44,5.29-5.44   c3.02,0,4.83,1.94,4.83,5.2v9.46h1.81v-9.74C107.31,171.81,104.79,169.22,100.89,169.22z"/>
	<rect x="115.83" y="164.52" class="st0" width="2.42" height="2.76"/>
	<path class="st0" d="M119.58,169.22c-4.62,0-8.23,3.67-8.23,8.36v0.06c0,4.65,3.59,8.29,8.17,8.29c4.62,0,8.23-3.67,8.23-8.36   v-0.06C127.75,172.86,124.16,169.22,119.58,169.22z M119.58,184.22c-3.53,0-6.3-2.92-6.3-6.64v-0.06c0-3.69,2.74-6.58,6.24-6.58   c3.53,0,6.3,2.92,6.3,6.64v0.06C125.82,181.33,123.08,184.22,119.58,184.22z"/>
	<rect x="120.84" y="164.52" class="st0" width="2.42" height="2.76"/>
	<path class="st0" d="M145.15,172.42c-1.19-1.54-3.21-3.2-6.4-3.2c-3.69,0-7.68,2.9-7.68,7.59v0.06c0,3.7,2.87,7.53,7.68,7.53   c2.54,0,4.74-1.14,6.4-3.32v1.81c0,3.72-2.24,5.93-6,5.93c-2.26,0-4.36-0.73-6.24-2.18l-0.12-0.09l-1.07,1.48l0.12,0.09   c2.17,1.61,4.62,2.43,7.28,2.43c2.36,0,4.42-0.76,5.79-2.13c1.34-1.33,2.04-3.21,2.04-5.42v-13.4h-1.81V172.42z M138.91,170.97   c3.96,0,6.33,2.96,6.33,5.81v0.06c0,3.59-3.29,5.81-6.33,5.81c-3.31,0-5.9-2.57-5.9-5.84v-0.06   C133.01,173.4,135.49,170.97,138.91,170.97z"/>
	<path class="st0" d="M157.89,176.54c-2.09-0.6-4.25-1.22-4.25-2.9v-0.06c0-1.52,1.4-2.58,3.41-2.58c1.55,0,3.23,0.55,4.74,1.54   l0.13,0.08l0.96-1.51l-0.12-0.08c-1.62-1.08-3.78-1.75-5.65-1.75c-3.13,0-5.31,1.84-5.31,4.48v0.06c0,2.86,2.84,3.68,5.35,4.41   l0.13,0.04c2.21,0.62,4.04,1.28,4.04,2.99v0.06c0,1.67-1.49,2.83-3.63,2.83c-1.92,0-3.78-0.68-5.53-2.03l-0.12-0.09l-1.07,1.44   l0.11,0.09c1.72,1.4,4.28,2.31,6.52,2.31c3.22,0,5.56-1.99,5.56-4.73v-0.06C163.16,178.26,160.55,177.29,157.89,176.54z"/>
	<polygon class="st0" points="181.38,169.59 178.96,169.59 169.46,179.42 169.46,162.83 167.66,162.83 167.66,185.56 169.46,185.56   169.46,181.66 173.11,177.99 179.21,185.51 179.26,185.56 181.55,185.56 174.37,176.7  "/>
	<path class="st0" d="M191.26,169.22c-4.62,0-8.23,3.67-8.23,8.36v0.06c0,4.65,3.59,8.29,8.17,8.29c4.62,0,8.23-3.67,8.23-8.36   v-0.06C199.43,172.86,195.84,169.22,191.26,169.22z M191.26,184.22c-3.53,0-6.3-2.92-6.3-6.64v-0.06c0-3.69,2.74-6.58,6.24-6.58   c3.53,0,6.3,2.92,6.3,6.64v0.06C197.5,181.33,194.76,184.22,191.26,184.22z"/>
	<rect x="203.99" y="162.83" class="st0" width="1.81" height="22.73"/>
	<path class="st0" d="M217.26,169.34c-2.36,0-4.17,0.69-5.63,1.37l-0.13,0.06l0.67,1.6l0.14-0.07c1.66-0.85,3.2-1.24,4.85-1.24   c3.23,0,5.01,1.65,5.01,4.64v0.48c-1.29-0.33-2.81-0.63-5.04-0.63c-4.32,0-7,2.01-7,5.25v0.06c0,2.52,2.13,5.07,6.2,5.07   c3.09,0,4.92-1.55,5.84-2.69v2.32h1.78v-9.92c0-1.94-0.54-3.43-1.64-4.53C221.15,169.94,219.45,169.34,217.26,169.34z    M217.05,177.2c2.18,0,3.9,0.35,5.17,0.67v1.67c0,2.67-2.48,4.67-5.78,4.67c-2.19,0-4.4-1.18-4.4-3.45v-0.06   C212.04,178.55,213.96,177.2,217.05,177.2z"/>
	<path class="st0" d="M236.38,169.22c-2.39,0-4.24,0.98-5.5,2.9v-2.54h-1.81v15.97h1.81v-9.22c0-3.1,2.27-5.44,5.29-5.44   c3.02,0,4.83,1.94,4.83,5.2v9.46h1.81v-9.74C242.8,171.81,240.28,169.22,236.38,169.22z"/>
</g>
</svg>